<svg xmlns="http://www.w3.org/2000/svg" width="1600" height="900" viewBox="0 0 1600 900">
    <defs>
      <marker id="arrow" markerWidth="14" markerHeight="14" refX="10" refY="6" orient="auto" markerUnits="strokeWidth">
        <path d="M2 2 L10 6 L2 10" fill="none" stroke="#e07b25" stroke-width="2" stroke-linecap="round" stroke-linejoin="round"/>
      </marker>
      <filter id="wobble"><feTurbulence type="fractalNoise" baseFrequency="0.015" numOctaves="1" seed="7"/><feDisplacementMap in="SourceGraphic" scale="1.6"/></filter>
    </defs>
    <rect width="1600" height="900" fill="#fff"/>
    <g filter="url(#wobble)">
      <g transform="translate(690 330) scale(1.25)" stroke="#111" stroke-width="6" stroke-linecap="round" stroke-linejoin="round" fill="none">
    <path d="M8 24 C23 -4 78 -9 99 20 C122 52 105 111 70 124 C34 138 -5 117 -13 82 C-22 52 -8 36 8 24Z" fill="#111"/>
    <circle cx="35" cy="52" r="7" fill="#fff" stroke="none"/>
    <circle cx="72" cy="49" r="7" fill="#fff" stroke="none"/>
    <path d="M82 58 C126 52 146 36 164 18"/><path d="M18 60 C-12 82 -32 104 -44 132"/>
    <path d="M28 122 C20 153 20 178 10 204"/>
    <path d="M70 124 C80 154 84 176 96 201"/>
  </g>
      <path d="M238 190 C370 168 511 174 626 194 C613 368 616 534 632 694 C474 727 329 720 203 690 C229 520 226 354 238 190Z" fill="none" stroke="#111" stroke-width="8" stroke-linecap="round" stroke-linejoin="round"/>
      <path d="M318 166 C348 128 455 128 489 166" fill="none" stroke="#111" stroke-width="8"/>
      <path d="M300 296 C385 284 492 289 560 301" stroke="#111" stroke-width="5" fill="none" stroke-linecap="round"/>
      <path d="M294 405 C398 391 503 401 560 414" stroke="#111" stroke-width="5" fill="none" stroke-linecap="round"/>
      <path d="M302 518 C421 508 502 516 552 530" stroke="#111" stroke-width="5" fill="none" stroke-linecap="round"/>
      <path d="M1030 244 C890 268 840 318 808 388" fill="none" stroke="#e07b25" stroke-width="6" stroke-linecap="round" stroke-linejoin="round" marker-end="url(#arrow)"/>
      <path d="M1078 444 C938 436 862 460 804 512" fill="none" stroke="#e07b25" stroke-width="6" stroke-linecap="round" stroke-linejoin="round" marker-end="url(#arrow)"/>
      <path d="M1018 650 C902 615 852 596 792 594" fill="none" stroke="#e07b25" stroke-width="6" stroke-linecap="round" stroke-linejoin="round" marker-end="url(#arrow)"/>
      <path d="M1080 190 C1162 172 1264 183 1326 218 C1316 282 1318 328 1338 378 C1264 408 1139 400 1066 368 C1085 312 1082 254 1080 190Z" fill="none" stroke="#111" stroke-width="6"/>
      <path d="M1102 417 C1184 394 1295 407 1360 444 C1348 517 1346 564 1368 616 C1278 641 1175 634 1091 602 C1110 543 1113 481 1102 417Z" fill="none" stroke="#111" stroke-width="6"/>
      <text x="1130" y="284" transform="rotate(0 1130 284)" font-family="PingFang SC, Hiragino Sans GB, Microsoft YaHei, sans-serif" font-size="30" fill="#2f6fd3" letter-spacing="0">文本</text><text x="1205" y="517" transform="rotate(0 1205 517)" font-family="PingFang SC, Hiragino Sans GB, Microsoft YaHei, sans-serif" font-size="30" fill="#2f6fd3" letter-spacing="0">图片/文件</text>
      <g transform="translate(196 702) rotate(-2)">
    <path d="M0 0 C48 -8 124 -3 178 4 C174 38 171 74 176 105 C116 114 48 106 -8 102 C-2 70 5 33 0 0Z" fill="none" stroke="#d33b2f" stroke-width="4" stroke-linecap="round" stroke-linejoin="round"/>
    <text x="18" y="62" font-family="PingFang SC, Hiragino Sans GB, Microsoft YaHei, sans-serif" font-size="30" fill="#d33b2f">自动收录</text>
  </g>
    </g>
  </svg>